<svg width="24" height="93" viewBox="0 0 24 93" fill="none" xmlns="http://www.w3.org/2000/svg">
<path fill-rule="evenodd" clip-rule="evenodd" d="M16.324 5.244V20.634C18.8852 20.6941 21.4447 20.8161 24 21V4.407C24 2.013 18.42 0 11.537 0C9.934 0 8.407 0.0769985 7 0.210999C12.36 0.913999 16.324 3.286 16.324 5.244" fill="#FCD3FF"/>
<path fill-rule="evenodd" clip-rule="evenodd" d="M18 5.325C18 3.255 13.864 0.743 8.27 0C3.432 0.47 0 1.906 0 4.44L0 22C3.811 21.716 8.256 21.552 13.005 21.552C14.715 21.552 16.385 21.573 18 21.613V5.325V5.325Z" fill="#F8BFEB"/>
<path fill-rule="evenodd" clip-rule="evenodd" d="M0 93H24L24 17H0L0 93Z" fill="#FFFCBD"/>
<path fill-rule="evenodd" clip-rule="evenodd" d="M24 44.5L24 93H18L18 17H24V44.5Z" fill="#F1F1F1"/>
<path fill-rule="evenodd" clip-rule="evenodd" d="M24 25.1999C24 25.1999 20.097 24.7029 12 24.7029C3.903 24.7029 0 25.1999 0 25.1999H24ZM24 28.7999C24 28.7999 20.097 28.3029 12 28.3029C3.903 28.3029 0 28.7999 0 28.7999H24ZM24 32.4969C24 32.4969 20.097 31.9999 12 31.9999C3.903 31.9999 0 32.4969 0 32.4969H24ZM24 36.4969C24 36.4969 20.097 35.9999 12 35.9999C3.903 35.9999 0 36.4969 0 36.4969" fill="#C4C4C4"/>
</svg>
