<svg width="28" height="92" viewBox="0 0 28 92" fill="none" xmlns="http://www.w3.org/2000/svg">
<path fill-rule="evenodd" clip-rule="evenodd" d="M27.146 37.097L26.914 37.137C26.7195 37.17 26.5248 37.202 26.33 37.233L26.074 37.273C25.7926 37.3156 25.5109 37.3566 25.229 37.396C24.941 37.436 24.6526 37.4736 24.364 37.509C23.127 37.663 22.38 37.789 21 37.885L21 92H27.953L27.953 37.234C27.953 37.139 27.939 37.046 27.918 36.954C27.666 37.004 27.408 37.051 27.146 37.097V37.097Z" fill="#FFFCAF"/>
<path fill-rule="evenodd" clip-rule="evenodd" d="M7.531 37.875C9.11015 37.9878 10.6921 38.0578 12.275 38.085L12.506 38.088C13.5256 38.1041 14.5454 38.1041 15.565 38.088L15.799 38.085C16.293 38.076 16.782 38.064 17.265 38.048L17.405 38.042C18.441 38.006 20.022 37.953 21 37.885L21 92H0L0 37.234C0 37.129 0.0179999 37.026 0.0439999 36.926C0.295 36.976 0.554 37.024 0.816 37.071L1.048 37.111C1.239 37.144 1.432 37.177 1.628 37.209L1.896 37.251C2.17875 37.2947 2.46175 37.3367 2.745 37.377L3.408 37.467L3.613 37.493C3.883 37.527 4.156 37.559 4.433 37.591L4.509 37.6C5.51439 37.7119 6.52193 37.8036 7.531 37.875V37.875Z" fill="#F7F9A9"/>
<path d="M10.3701 11.39V0.5L17.6261 4.5V11.39H10.3701Z" fill="#EFFF8D"/>
<path fill-rule="evenodd" clip-rule="evenodd" d="M20.9999 27.913V13.154C20.9998 13.0608 20.9786 12.9689 20.9379 12.885L19.6399 11.366C19.5815 11.2454 19.4863 11.1464 19.3681 11.0832C19.2499 11.0199 19.1147 10.9957 18.9819 11.014C18.531 11.0702 18.0789 11.1162 17.6259 11.152C16.4117 11.2492 15.1941 11.2989 13.9759 11.301C12.8289 11.301 11.5259 11.249 10.3529 11.154C9.86595 11.114 9.39995 11.068 8.97895 11.014C8.84617 10.9959 8.71106 11.0202 8.59289 11.0834C8.47473 11.1466 8.37955 11.2455 8.32095 11.366L7.06195 12.886C7.02232 12.9698 7.00183 13.0613 7.00195 13.154L7.00195 27.913L0.314945 36.405C0.184723 36.5544 0.091842 36.7327 0.0439453 36.925C0.293945 36.975 0.553945 37.024 0.815945 37.071L1.04795 37.111C1.23895 37.144 1.43095 37.177 1.62795 37.209L1.89595 37.251C2.39902 37.329 2.90306 37.4007 3.40795 37.466L3.61295 37.493C4.91543 37.6541 6.22187 37.7815 7.53095 37.875C9.11011 37.9875 10.692 38.0575 12.2749 38.085L12.5059 38.088C13.5255 38.1044 14.5453 38.1048 15.5649 38.089L15.7989 38.085C16.2929 38.076 16.7819 38.064 17.2649 38.047L17.4049 38.042C18.4409 38.006 19.4509 37.953 20.4299 37.885C22.0345 37.7738 23.635 37.6104 25.2289 37.395L25.4649 37.363L26.0749 37.273L26.3299 37.233C26.5279 37.201 26.7219 37.169 26.9139 37.136L27.1459 37.097C27.4079 37.051 27.6659 37.004 27.9179 36.955C27.8709 36.753 27.7779 36.563 27.6379 36.405L20.9999 27.913Z" fill="#545454"/>
</svg>
