<svg width="24" height="92" viewBox="0 0 24 92" fill="none" xmlns="http://www.w3.org/2000/svg">
<path fill-rule="evenodd" clip-rule="evenodd" d="M1 48L0 92H23.965L23 48H1Z" fill="black"/>
<path fill-rule="evenodd" clip-rule="evenodd" d="M17.2236 92H23.9996L22.9976 48.39H17.2236L17.2236 92Z" fill="#DBDBDB"/>
<path fill-rule="evenodd" clip-rule="evenodd" d="M20.7999 19.903C20.7589 19.683 20.7099 19.46 20.6569 19.236C20.6289 19.116 20.5969 18.996 20.5659 18.876C20.5419 18.786 20.5199 18.697 20.4949 18.606C20.4459 18.43 20.3949 18.252 20.3399 18.074L20.3329 18.054C19.5059 15.357 18.0389 12.562 16.5229 10.006L16.4999 9.966V9.968C16.0899 9.278 15.6789 8.605 15.2749 7.957C13.0239 4.343 12.3839 1 12.3839 1H11.9999L11.9999 39.988H16.1639C16.1631 39.992 16.1624 39.996 16.1619 40H18.5489L19.8269 31.612C19.8809 31.08 19.9429 30.549 20.0109 30.019L20.0329 29.851C20.1606 28.8692 20.312 27.8906 20.4869 26.916C20.7139 25.66 20.9569 24.163 20.9939 22.636C21.0179 21.721 20.9689 20.795 20.8009 19.903H20.7999ZM10.6849 1C10.6849 1 9.97687 4.344 7.72487 7.959C6.81287 9.425 5.85687 11.015 4.99087 12.651C3.72087 15.051 2.64587 17.551 2.19987 19.909C1.74987 22.286 2.14987 24.908 2.51287 26.912C2.79281 28.4687 3.01297 30.0355 3.17287 31.609L4.45087 40H10.9999L10.9999 1H10.6849ZM0.999867 45L0.963867 49.483C4.32787 49.816 8.20087 50 12.0929 50C15.9859 50 19.6719 49.816 23.0369 49.483L22.9999 45H0.999867Z" fill="#969696"/>
<path fill-rule="evenodd" clip-rule="evenodd" d="M9.29688 20.8862C9.29701 20.2895 9.53419 19.7172 9.95624 19.2954C10.3783 18.8735 10.9506 18.6366 11.5474 18.6367C12.1441 18.6369 12.7164 18.874 13.1382 19.2961C13.5601 19.7181 13.797 20.2905 13.7969 20.8872C13.7968 21.1827 13.7385 21.4753 13.6254 21.7482C13.5123 22.0212 13.3465 22.2692 13.1375 22.4781C12.7155 22.8999 12.1431 23.1369 11.5464 23.1367C10.9496 23.1366 10.3774 22.8994 9.95553 22.4774C9.53367 22.0553 9.29674 21.483 9.29688 20.8862Z" fill="black"/>
<path fill-rule="evenodd" clip-rule="evenodd" d="M23.204 42H0.796C0.356 42 0 42.435 0 42.97L0 44.03C0 44.565 0.356 45 0.796 45H23.204C23.644 45 24 44.565 24 44.03V42.97C24 42.435 23.643 42 23.204 42Z" fill="#6B6B6B"/>
<path fill-rule="evenodd" clip-rule="evenodd" d="M11.747 42H23L21.606 40.312C21.5281 40.2184 21.4306 40.1432 21.3203 40.0917C21.21 40.0402 21.0897 40.0137 20.968 40.014H17.55L17.532 40H17.471L15.958 40.014H15.828C15.821 40.009 15.815 40.004 15.807 40H12.673L10.933 40.014L10.935 40.015L8.567 40.027C8.567 40.027 2.865 40.021 2.807 40.033C2.64386 40.0812 2.49961 40.1786 2.394 40.312L1 42H11.747ZM10.536 1C10.536 0.448 10.989 0 11.548 0C12.107 0 12.56 0.448 12.56 1C12.56 1.552 12.107 2 11.548 2C10.988 2 10.536 1.552 10.536 1" fill="black"/>
</svg>
